<?xml version="1.0" encoding="UTF-8"?>
<svg xmlns="http://www.w3.org/2000/svg" version="1.2" baseProfile="tiny-ps" viewBox="0 0 512 512" width="512" height="512">
<title>SDS ProTech</title>
<rect x="0" y="0" width="512" height="512" fill="#ffffff"/>
<circle cx="256" cy="256" r="218" fill="none" stroke="#1144CC" stroke-width="10"/>
<circle cx="256" cy="256" r="202" fill="none" stroke="#1144CC" stroke-width="3"/>
<rect x="172" y="114" width="168" height="22" rx="4" fill="#0057D9"/>
<polygon points="176,114 194,68 214,114" fill="#0057D9"/>
<polygon points="214,114 225,92 236,114" fill="#0057D9"/>
<polygon points="236,114 256,52 276,114" fill="#0057D9"/>
<polygon points="276,114 287,92 298,114" fill="#0057D9"/>
<polygon points="298,114 318,68 336,114" fill="#0057D9"/>
<circle cx="194" cy="72" r="7" fill="#55CCFF"/>
<circle cx="256" cy="56" r="9" fill="#55CCFF"/>
<circle cx="318" cy="72" r="7" fill="#55CCFF"/>
<text x="256" y="285" text-anchor="middle" font-family="Arial Black,sans-serif" font-size="130" font-weight="900" fill="#0057D9">SDS</text>
<rect x="186" y="300" width="140" height="46" rx="9" fill="none" stroke="#0057D9" stroke-width="5"/>
<text x="256" y="337" text-anchor="middle" font-family="Arial Black,sans-serif" font-size="30" font-weight="900" fill="#0057D9">PRO</text>
<polygon points="256,418 237,392 256,374 275,392" fill="#0057D9"/>
<line x1="175" y1="394" x2="228" y2="394" stroke="#0057D9" stroke-width="3.5" stroke-linecap="round"/>
<line x1="284" y1="394" x2="337" y2="394" stroke="#0057D9" stroke-width="3.5" stroke-linecap="round"/>
</svg>
